<svg width="20" height="20" viewBox="0 0 20 20" fill="none" xmlns="http://www.w3.org/2000/svg">
<path fill-rule="evenodd" clip-rule="evenodd" d="M1 9.99988C1 6.40474 1 4.60717 1.85669 3.31243C2.23925 2.73427 2.73439 2.23912 3.31255 1.85657C4.60729 0.999878 6.40486 0.999878 10 0.999878C13.5951 0.999878 15.3927 0.999878 16.6874 1.85657C17.2656 2.23912 17.7608 2.73427 18.1433 3.31243C19 4.60717 19 6.40474 19 9.99988C19 13.595 19 15.3926 18.1433 16.6873C17.7608 17.2655 17.2656 17.7606 16.6874 18.1432C15.3927 18.9999 13.5951 18.9999 10 18.9999C6.40486 18.9999 4.60729 18.9999 3.31255 18.1432C2.73439 17.7606 2.23925 17.2655 1.85669 16.6873C1 15.3926 1 13.595 1 9.99988ZM14.6593 10.0001C14.6593 12.5734 12.5732 14.6595 9.99984 14.6595C7.42652 14.6595 5.34043 12.5734 5.34043 10.0001C5.34043 7.42678 7.42652 5.3407 9.99984 5.3407C12.5732 5.3407 14.6593 7.42678 14.6593 10.0001ZM9.99984 13.0831C11.7025 13.0831 13.0828 11.7028 13.0828 10.0001C13.0828 8.29741 11.7025 6.9171 9.99984 6.9171C8.29714 6.9171 6.91684 8.29741 6.91684 10.0001C6.91684 11.7028 8.29714 13.0831 9.99984 13.0831ZM14.8433 6.20143C15.4479 6.20143 15.9381 5.71126 15.9381 5.1066C15.9381 4.50195 15.4479 4.01178 14.8433 4.01178C14.2386 4.01178 13.7485 4.50195 13.7485 5.1066C13.7485 5.71126 14.2386 6.20143 14.8433 6.20143Z" fill="currentColor"/>
</svg>
