<svg width="20" height="20" viewBox="0 0 20 20" fill="none" xmlns="http://www.w3.org/2000/svg">
<path d="M1 2.99122C1 2.41401 1.20271 1.93782 1.60811 1.56265C2.01351 1.18746 2.54055 0.999878 3.18919 0.999878C3.82626 0.999878 4.34169 1.18457 4.73552 1.55399C5.14092 1.93494 5.34363 2.43132 5.34363 3.04317C5.34363 3.59728 5.14672 4.05903 4.7529 4.42845C4.3475 4.8094 3.81467 4.99988 3.15444 4.99988H3.13707C2.49999 4.99988 1.98456 4.8094 1.59073 4.42845C1.19691 4.0475 1 3.56841 1 2.99122ZM1.22587 18.1427V6.57563H5.08301V18.1427H1.22587ZM7.22008 18.1427H11.0772V11.6839C11.0772 11.2798 11.1236 10.9681 11.2162 10.7488C11.3784 10.3563 11.6245 10.0244 11.9546 9.75312C12.2847 9.48183 12.6988 9.3462 13.1969 9.3462C14.4942 9.3462 15.1429 10.2178 15.1429 11.9609V18.1427H19V11.5107C19 9.80218 18.5946 8.50637 17.7838 7.62325C16.973 6.74014 15.9015 6.29858 14.5695 6.29858C13.0753 6.29858 11.9112 6.93927 11.0772 8.22065V8.25529H11.0598L11.0772 8.22065V6.57563H7.22008C7.24324 6.94504 7.25483 8.09366 7.25483 10.0215C7.25483 11.9494 7.24324 14.6564 7.22008 18.1427Z" fill="currentColor"/>
</svg>
