<svg width="20" height="20" viewBox="0 0 20 20" fill="none" xmlns="http://www.w3.org/2000/svg">
<path d="M4.98339 4.54098H18.5573L16.6248 12.7538C16.3739 13.8201 15.4224 14.5738 14.3269 14.5738H9.45628C8.38513 14.5738 7.44826 13.8526 7.17417 12.8172L4.98339 4.54098ZM4.98339 4.54098L4.09814 1H1.44238" stroke="#595667" stroke-width="1.5" stroke-linecap="round" stroke-linejoin="round"/>
<path d="M7.6403 18.9998C8.29218 18.9998 8.82064 18.4714 8.82064 17.8195C8.82064 17.1676 8.29218 16.6392 7.6403 16.6392C6.98842 16.6392 6.45996 17.1676 6.45996 17.8195C6.45996 18.4714 6.98842 18.9998 7.6403 18.9998Z" fill="#595667"/>
<path d="M15.903 18.9998C16.5549 18.9998 17.0833 18.4714 17.0833 17.8195C17.0833 17.1676 16.5549 16.6392 15.903 16.6392C15.2511 16.6392 14.7227 17.1676 14.7227 17.8195C14.7227 18.4714 15.2511 18.9998 15.903 18.9998Z" fill="#595667"/>
</svg>
