<svg width="20" height="20" viewBox="0 0 20 20" fill="none" xmlns="http://www.w3.org/2000/svg">
<path d="M13.0271 3.00312V2.99988H13.8711L14.1794 3.06147C14.385 3.10146 14.5717 3.15386 14.7394 3.21869C14.9071 3.28353 15.0694 3.35917 15.2263 3.44561C15.3832 3.53205 15.5255 3.62013 15.6532 3.70981C15.7798 3.79842 15.8934 3.89243 15.9941 3.99183C16.0936 4.09232 16.2489 4.11826 16.4599 4.06963C16.6709 4.02101 16.8981 3.95347 17.1416 3.86703C17.385 3.78059 17.6258 3.68334 17.8638 3.57528C18.1019 3.46721 18.2469 3.3986 18.2988 3.36943C18.3497 3.33918 18.3768 3.32298 18.38 3.3208L18.3832 3.31594L18.3995 3.30784L18.4157 3.29973L18.4319 3.29163L18.4482 3.28353L18.4514 3.27866L18.4563 3.27542L18.4612 3.27218L18.4644 3.26732L18.4806 3.26245L18.4968 3.25921L18.4936 3.28353L18.4887 3.30784L18.4806 3.33215L18.4725 3.35646L18.4644 3.37267L18.4563 3.38888L18.4482 3.41319C18.4427 3.4294 18.4373 3.45101 18.4319 3.47803C18.4265 3.50505 18.3751 3.61309 18.2777 3.80219C18.1803 3.9913 18.0586 4.18309 17.9125 4.37759C17.7665 4.57209 17.6355 4.71904 17.5198 4.81846C17.4029 4.91895 17.3255 4.98918 17.2876 5.02917C17.2498 5.07023 17.2038 5.10804 17.1497 5.14263L17.0685 5.19612L17.0523 5.20422L17.0361 5.21233L17.0328 5.21719L17.028 5.22043L17.0231 5.22367L17.0198 5.22853L17.0036 5.23664L16.9874 5.24474L16.9841 5.24961L16.9793 5.25285L16.9744 5.25609L16.9711 5.26095L16.9679 5.26581L16.963 5.26906L16.9582 5.2723L16.9549 5.27716H17.0361L17.4905 5.17991C17.7935 5.11508 18.083 5.03674 18.3589 4.94489L18.7971 4.79901L18.8458 4.7828L18.8702 4.7747L18.8864 4.76659L18.9026 4.75849L18.9188 4.75039L18.9351 4.74228L18.9675 4.73742L19 4.73418V4.76659L18.9919 4.76984L18.9838 4.7747L18.9805 4.77956L18.9757 4.7828L18.9708 4.78604L18.9675 4.79091L18.9643 4.79577L18.9594 4.79901L18.9546 4.80225L18.9513 4.80712L18.9481 4.81198L18.9432 4.81522L18.9351 4.83143L18.927 4.84764L18.9221 4.85088C18.9199 4.85412 18.8512 4.94596 18.716 5.12642C18.5807 5.30796 18.5077 5.39979 18.4968 5.40196C18.486 5.40521 18.4709 5.42141 18.4514 5.45059C18.433 5.48083 18.3183 5.60133 18.1073 5.81204C17.8963 6.02275 17.6897 6.21021 17.4873 6.37447C17.2839 6.53979 17.1811 6.74293 17.1789 6.9839C17.1757 7.22379 17.1632 7.49502 17.1416 7.79757C17.1199 8.10013 17.0794 8.42699 17.0198 8.77818C16.9603 9.12936 16.8684 9.52647 16.7439 9.96949C16.6195 10.4125 16.468 10.8447 16.2894 11.2662C16.1109 11.6876 15.9243 12.0658 15.7295 12.4008C15.5347 12.7357 15.3562 13.0194 15.1939 13.2517C15.0316 13.484 14.8666 13.7028 14.6988 13.9081C14.5311 14.1134 14.319 14.3447 14.0626 14.6019C13.8051 14.8579 13.6644 14.9984 13.6406 15.0233C13.6157 15.0471 13.5097 15.1357 13.3225 15.2891C13.1363 15.4436 12.9362 15.5981 12.7219 15.7527C12.5088 15.9061 12.3129 16.0341 12.1344 16.1368C11.9558 16.2394 11.7405 16.3567 11.4884 16.4885C11.2373 16.6214 10.9657 16.7446 10.6736 16.8581C10.3814 16.9715 10.073 17.0769 9.74842 17.1741C9.42381 17.2714 9.11001 17.347 8.80703 17.401C8.50407 17.4551 8.16051 17.501 7.77637 17.5388L7.20018 17.5955V17.6037H6.14518V17.5955L6.00721 17.5874C5.91525 17.582 5.8395 17.5766 5.77998 17.5712C5.72048 17.5658 5.49594 17.5361 5.1064 17.4821C4.71686 17.4281 4.41119 17.374 4.18936 17.32C3.96755 17.266 3.63751 17.1633 3.19928 17.012C2.76105 16.8608 2.38611 16.7079 2.07448 16.5533C1.76394 16.3999 1.56917 16.3027 1.49017 16.2616C1.41226 16.2216 1.32462 16.1719 1.22723 16.1125L1.08115 16.0233L1.07792 16.0185L1.07304 16.0152L1.06817 16.012L1.06492 16.0071L1.04869 15.999L1.03246 15.9909L1.02923 15.9861L1.02435 15.9828L1.01948 15.9796L1.01623 15.9747L1.013 15.9698L1.00812 15.9666H1V15.9342L1.01623 15.9374L1.03246 15.9423L1.1055 15.9504C1.15419 15.9558 1.28675 15.9639 1.50316 15.9747C1.71958 15.9855 1.9495 15.9855 2.19297 15.9747C2.43643 15.9639 2.68531 15.9396 2.93959 15.9018C3.19387 15.864 3.49414 15.7991 3.8404 15.7073C4.18667 15.6154 4.50479 15.5063 4.79479 15.3799C5.08369 15.2524 5.28927 15.1573 5.41156 15.0946C5.53274 15.033 5.71777 14.9185 5.96664 14.751L6.33995 14.4997L6.34319 14.4949L6.34806 14.4916L6.35295 14.4884L6.35618 14.4835L6.35942 14.4787L6.36429 14.4754L6.36918 14.4722L6.37241 14.4673L6.38864 14.4625L6.40487 14.4592L6.40812 14.443L6.41298 14.4268L6.41787 14.4236L6.4211 14.4187L6.29125 14.4106C6.20469 14.4052 6.12083 14.3998 6.03968 14.3944C5.95852 14.389 5.83139 14.3647 5.65825 14.3215C5.48513 14.2782 5.29848 14.2134 5.09829 14.127C4.89811 14.0405 4.70334 13.9378 4.51398 13.819C4.32463 13.7001 4.18774 13.6012 4.10334 13.5224C4.02002 13.4446 3.91181 13.3344 3.77872 13.1917C3.64671 13.048 3.53201 12.9005 3.43463 12.7492C3.33724 12.598 3.24419 12.4234 3.15547 12.2257L3.02074 11.9307L3.01262 11.9064L3.00451 11.8821L2.99964 11.8659L2.99639 11.8497L3.02074 11.8529L3.04509 11.8578L3.22362 11.8821C3.34266 11.8983 3.52932 11.9037 3.78359 11.8983C4.03788 11.8929 4.21371 11.8821 4.31109 11.8659C4.40848 11.8497 4.46799 11.8389 4.48963 11.8335L4.52209 11.8254L4.56267 11.8173L4.60325 11.8091L4.60649 11.8043L4.61136 11.801L4.61625 11.7978L4.61948 11.7929L4.58702 11.7848L4.55455 11.7767L4.52209 11.7686L4.48963 11.7605L4.45717 11.7524C4.43553 11.747 4.39767 11.7362 4.34355 11.72C4.28946 11.7038 4.14338 11.6444 3.90532 11.5417C3.66728 11.4391 3.47791 11.3391 3.33724 11.2419C3.19622 11.1443 3.06176 11.0377 2.93472 10.9225C2.80812 10.8058 2.66908 10.6556 2.51758 10.472C2.3661 10.2883 2.23085 10.0748 2.11181 9.83172C1.99279 9.5886 1.90352 9.35628 1.844 9.13476C1.78472 8.91454 1.74561 8.6894 1.72716 8.46211L1.69793 8.12174L1.71416 8.12498L1.73039 8.12984L1.74662 8.13794L1.76285 8.14605L1.77908 8.15415L1.79531 8.16226L2.04689 8.27571C2.21462 8.35136 2.42291 8.41619 2.67178 8.47022C2.92066 8.52424 3.06943 8.55396 3.11812 8.55936L3.19116 8.56747H3.33724L3.33401 8.5626L3.32913 8.55936L3.32426 8.55612L3.32101 8.55126L3.31778 8.5464L3.31289 8.54315L3.30803 8.53991L3.30478 8.53505L3.28855 8.52695L3.27232 8.51884L3.26909 8.51398L3.2642 8.51074L3.25933 8.50749L3.25609 8.50263L3.23986 8.49453L3.22362 8.48642L3.22039 8.48156C3.21715 8.47939 3.17061 8.44482 3.08079 8.37783C2.99206 8.30975 2.89901 8.22169 2.80162 8.11363C2.70424 8.00557 2.60685 7.89211 2.50947 7.77325C2.4119 7.65413 2.32501 7.52667 2.24977 7.39236C2.17404 7.25729 2.09396 7.08547 2.00956 6.87693C1.92625 6.66946 1.86294 6.46037 1.81966 6.24966C1.77639 6.03895 1.75204 5.83095 1.74662 5.62564C1.74121 5.42033 1.74662 5.24474 1.76285 5.09887C1.77908 4.95299 1.81154 4.7882 1.86023 4.60451C1.90893 4.42082 1.97927 4.22632 2.07124 4.02101L2.2092 3.71305L2.21731 3.68874L2.22543 3.66442L2.23031 3.66118L2.23354 3.65632L2.23679 3.65146L2.24166 3.64821L2.24654 3.65146L2.24977 3.65632L2.25302 3.66118L2.25789 3.66442L2.26278 3.66766L2.26601 3.67253L2.26925 3.67739L2.27412 3.68063L2.28224 3.69684L2.29035 3.71305L2.29524 3.71629L2.29847 3.72115L2.51758 3.96428C2.66366 4.12636 2.8368 4.30736 3.03697 4.50726C3.23716 4.70716 3.34807 4.81089 3.3697 4.81846C3.39135 4.8271 3.41839 4.85195 3.45086 4.89302C3.48332 4.93301 3.59153 5.02864 3.77547 5.17991C3.95943 5.33118 4.20019 5.50678 4.49775 5.70668C4.79532 5.90658 5.12534 6.10379 5.48783 6.29829C5.85033 6.49279 6.23987 6.66838 6.65645 6.82506C7.07304 6.98175 7.3652 7.0844 7.53291 7.13302C7.70064 7.18165 7.98738 7.24377 8.39315 7.31942C8.79892 7.39506 9.10461 7.44369 9.31019 7.46529C9.51579 7.4869 9.65646 7.49933 9.73219 7.50257L9.84581 7.50582L9.84258 7.4815L9.83769 7.45719L9.80523 7.25459C9.78359 7.11952 9.77277 6.93042 9.77277 6.68729C9.77277 6.44416 9.79171 6.21995 9.82958 6.01464C9.86746 5.80933 9.92427 5.60133 10 5.39062C10.0757 5.17991 10.1499 5.01079 10.2224 4.88329C10.296 4.75687 10.3923 4.61261 10.5113 4.45053C10.6303 4.28845 10.7845 4.12096 10.9739 3.94807C11.1632 3.77517 11.3796 3.62119 11.6231 3.48613C11.8665 3.35107 12.0911 3.2484 12.2967 3.17817C12.5023 3.10794 12.6754 3.062 12.8161 3.0404C12.9567 3.01879 13.0271 3.00636 13.0271 3.00312Z" fill="currentColor"/>
</svg>
