<svg width="20" height="20" viewBox="0 0 20 20" fill="none" xmlns="http://www.w3.org/2000/svg">
<path d="M10.9209 16.4133L7.02287 16.3405C5.76076 16.3151 4.49552 16.3658 3.25816 16.1027C1.37585 15.7098 1.2425 13.783 1.10296 12.1668C0.910694 9.89464 0.985127 7.58123 1.34796 5.32803C1.55279 4.06374 2.35888 3.30934 3.60547 3.22724C7.81364 2.92931 12.0498 2.96462 16.2486 3.10362C16.6921 3.11636 17.1386 3.186 17.5758 3.26527C19.7343 3.65191 19.7869 5.83538 19.9268 7.67344C20.0664 9.53047 20.0074 11.397 19.7407 13.2414C19.5268 14.7685 19.1174 16.0491 17.3898 16.1728C15.2251 16.3344 13.1102 16.4646 10.9395 16.4231C10.9396 16.4133 10.9271 16.4133 10.9209 16.4133ZM8.62925 12.5471C10.2605 11.59 11.8606 10.6489 13.4825 9.69816C11.8482 8.74105 10.2511 7.79989 8.62925 6.84919V12.5471Z" fill="currentColor"/>
</svg>
