<svg width="145" height="39" viewBox="0 0 145 39" fill="none" xmlns="http://www.w3.org/2000/svg">
<mask id="path-1-inside-1_311_2678" fill="white">
<path d="M5.8437 19.9346C5.45318 19.5441 5.45318 18.911 5.8437 18.5204L7.73143 16.6327C10.0746 14.2896 13.8736 14.2896 16.2167 16.6327L18.1044 18.5204C18.495 18.911 18.495 19.5441 18.1044 19.9346L16.2167 21.8224C13.8736 24.1655 10.0746 24.1655 7.73143 21.8224L5.8437 19.9346Z"/>
</mask>
<path d="M5.8437 19.9346C5.45318 19.5441 5.45318 18.911 5.8437 18.5204L7.73143 16.6327C10.0746 14.2896 13.8736 14.2896 16.2167 16.6327L18.1044 18.5204C18.495 18.911 18.495 19.5441 18.1044 19.9346L16.2167 21.8224C13.8736 24.1655 10.0746 24.1655 7.73143 21.8224L5.8437 19.9346Z" stroke="#C69B7B" stroke-width="5" mask="url(#path-1-inside-1_311_2678)"/>
<mask id="path-2-inside-2_311_2678" fill="white">
<path d="M21.9318 19.9346C21.5413 19.5441 21.5413 18.911 21.9318 18.5204L23.8196 16.6327C26.1627 14.2896 29.9617 14.2896 32.3048 16.6327L34.1926 18.5204C34.5831 18.911 34.5831 19.5441 34.1926 19.9346L32.3048 21.8224C29.9617 24.1655 26.1627 24.1655 23.8196 21.8224L21.9318 19.9346Z"/>
</mask>
<path d="M21.9318 19.9346C21.5413 19.5441 21.5413 18.911 21.9318 18.5204L23.8196 16.6327C26.1627 14.2896 29.9617 14.2896 32.3048 16.6327L34.1926 18.5204C34.5831 18.911 34.5831 19.5441 34.1926 19.9346L32.3048 21.8224C29.9617 24.1655 26.1627 24.1655 23.8196 21.8224L21.9318 19.9346Z" stroke="#C69B7B" stroke-width="5" mask="url(#path-2-inside-2_311_2678)"/>
<mask id="path-3-inside-3_311_2678" fill="white">
<path d="M19.3111 5.0533C19.7016 4.66277 20.3348 4.66277 20.7253 5.0533L22.613 6.94102C24.9562 9.28417 24.9562 13.0832 22.613 15.4263L20.7253 17.314C20.3348 17.7046 19.7016 17.7046 19.3111 17.314L17.4234 15.4263C15.0802 13.0832 15.0802 9.28417 17.4234 6.94103L19.3111 5.0533Z"/>
</mask>
<path d="M19.3111 5.0533C19.7016 4.66277 20.3348 4.66277 20.7253 5.0533L22.613 6.94102C24.9562 9.28417 24.9562 13.0832 22.613 15.4263L20.7253 17.314C20.3348 17.7046 19.7016 17.7046 19.3111 17.314L17.4234 15.4263C15.0802 13.0832 15.0802 9.28417 17.4234 6.94103L19.3111 5.0533Z" stroke="#C69B7B" stroke-width="5" mask="url(#path-3-inside-3_311_2678)"/>
<mask id="path-4-inside-4_311_2678" fill="white">
<path d="M19.2054 20.3424C19.5959 19.9518 20.2291 19.9518 20.6196 20.3424L22.5073 22.2301C24.8505 24.5732 24.8505 28.3722 22.5073 30.7154L20.6196 32.6031C20.2291 32.9936 19.5959 32.9936 19.2054 32.6031L17.3176 30.7154C14.9745 28.3722 14.9745 24.5732 17.3176 22.2301L19.2054 20.3424Z"/>
</mask>
<path d="M19.2054 20.3424C19.5959 19.9518 20.2291 19.9518 20.6196 20.3424L22.5073 22.2301C24.8505 24.5732 24.8505 28.3722 22.5073 30.7154L20.6196 32.6031C20.2291 32.9936 19.5959 32.9936 19.2054 32.6031L17.3176 30.7154C14.9745 28.3722 14.9745 24.5732 17.3176 22.2301L19.2054 20.3424Z" stroke="#C69B7B" stroke-width="5" mask="url(#path-4-inside-4_311_2678)"/>
<path d="M23.75 1.29785C24.8356 1.20771 25.7219 1.22654 26.5273 1.5127C27.0049 1.68235 27.3852 2.07688 27.9238 2.81738C28.3914 3.46029 29.0508 4.49559 30.0088 5.1709C31.051 5.90557 32.4546 6.40502 33.4277 6.81836C34.5624 7.30033 35.1618 7.67761 35.4062 8.08594C35.7581 8.67358 35.9434 9.41776 36.1162 10.4258C36.2784 11.3714 36.4328 12.5849 36.79 13.7646C37.1129 14.8308 37.7983 15.9554 38.2471 16.8018C38.7538 17.7576 39.0526 18.4992 39.0527 19.1631C39.0527 19.7842 38.7878 20.3518 38.2959 21.1279C37.8568 21.8207 37.1304 22.8096 36.79 23.9336C36.419 25.1589 36.3515 26.5641 36.2344 27.5889C36.1051 28.7195 35.915 29.5369 35.4697 30.1465C35.0282 30.751 34.3051 31.1861 33.2715 31.6602C32.338 32.0882 31.0325 32.5879 30.0088 33.3096C29.0673 33.9733 28.4119 34.9495 27.9434 35.5605C27.4143 36.2506 27.0289 36.6363 26.5273 36.8145C25.7219 37.1006 24.8356 37.1194 23.75 37.0293C22.7494 36.9462 21.4061 36.7422 20.1514 36.7422C18.8967 36.7422 17.5533 36.9462 16.5527 37.0293C15.4671 37.1194 14.5809 37.1006 13.7754 36.8145C13.0442 36.5547 12.4454 36.0908 11.7764 35.4551C11.1596 34.869 10.365 34.004 9.47852 33.334C8.61188 32.6791 7.53 32.133 6.74805 31.6777C5.89128 31.1789 5.2528 30.7212 4.83301 30.1465C4.3503 29.4857 4.08122 28.6086 3.85938 27.4883C3.65676 26.4651 3.4773 25.0906 3.12695 23.9336C2.80719 22.8776 2.226 21.9181 1.87012 21.2256C1.48359 20.4734 1.25 19.8619 1.25 19.1631C1.25014 18.4992 1.5489 17.7576 2.05566 16.8018C2.50441 15.9554 3.1898 14.8308 3.5127 13.7646C3.87951 12.5532 3.95041 11.3141 4.06543 10.4453C4.18834 9.51705 4.36649 8.81933 4.83301 8.18066C5.23894 7.62496 5.85618 7.20776 6.71289 6.74609C7.49309 6.32569 8.5898 5.81808 9.47852 5.14648C10.3844 4.46181 11.1798 3.5485 11.8008 2.9248C12.4777 2.24504 13.0676 1.76415 13.7754 1.5127C14.5809 1.22655 15.4671 1.20771 16.5527 1.29785C17.5533 1.38093 18.8967 1.58496 20.1514 1.58496C21.4061 1.58496 22.7494 1.38093 23.75 1.29785Z" stroke="#C69B7B" stroke-width="2.5"/>
<path d="M52.5764 10.4033C52.8556 11.6764 53.5469 13.6548 55.2883 14.9258L55.2952 14.9307L55.303 14.9365C55.5026 15.0784 55.7044 15.2315 55.9338 15.4053C56.1573 15.5745 56.405 15.7616 56.6672 15.9482C57.196 16.3246 57.5868 16.5839 57.9836 16.9189L57.9983 16.9316L58.0139 16.9443C58.8277 17.5952 59.5658 18.3967 60.1985 19.3281V19.3271C60.3541 19.5585 60.566 19.7703 60.8342 19.9268C61.1121 20.0888 61.4358 20.1826 61.7776 20.1826C62.1194 20.1826 62.4431 20.0887 62.7209 19.9268C62.9897 19.7701 63.201 19.5571 63.3567 19.3252L63.3577 19.3262C63.9891 18.3934 64.7264 17.5901 65.5393 16.9375L65.5432 16.9336C65.9766 16.5831 66.4323 16.2647 66.8831 15.9463C67.3186 15.6386 67.9036 15.1881 68.2639 14.9248L68.2629 14.9238C70.0131 13.6633 70.7041 11.688 70.9817 10.4033H71.1741V27.7539H71.1057V12.6113L68.5569 15.1016C68.4121 15.2431 68.2631 15.3792 68.1096 15.5098C67.6484 15.8969 67.1748 16.229 66.6545 16.5938C66.3752 16.7896 66.1446 16.963 65.9426 17.1162C65.7361 17.2728 65.5723 17.3975 65.3948 17.5234C64.4641 18.1728 63.6731 19.031 63.0579 20.0303C62.5801 20.8064 62.2147 21.6601 61.967 22.5566H61.5842C61.3364 21.6589 60.9709 20.8043 60.4924 20.0273C59.8762 19.0267 59.0831 18.1682 58.1506 17.5186H58.1516C57.7239 17.215 57.4502 16.9941 56.9124 16.6035C56.4118 16.24 55.9034 15.8957 55.4377 15.5049L55.4319 15.501L55.2141 15.3105C55.1421 15.2449 55.0706 15.1775 55.0002 15.1074L52.4417 12.5576V27.7539H52.3772V10.4033H52.5764Z" fill="#3A3845" stroke="#C69B7B" stroke-width="3"/>
<path d="M85.5536 10.4033C90.1523 10.4033 93.9618 14.2584 93.9618 19.0791C93.9616 23.8953 90.1518 27.7539 85.5536 27.7539C80.9552 27.7537 77.1465 23.8995 77.1464 19.0791C77.1464 14.2586 80.9551 10.4036 85.5536 10.4033ZM85.5536 11.1006C81.0481 11.1008 77.2645 14.6145 77.2645 19.0791C77.2647 23.5507 81.0557 27.033 85.5536 27.0332C90.0572 27.0332 93.8474 23.5212 93.8475 19.0596C93.8475 14.5936 90.0528 11.1006 85.5536 11.1006Z" fill="#3A3845" stroke="#C69B7B" stroke-width="3"/>
<path d="M107.847 9.90332C113.053 9.90347 117.249 14.0411 117.249 19.0791C117.249 24.1124 113.053 28.2538 107.847 28.2539C102.64 28.2539 98.4434 24.117 98.4432 19.0791C98.4432 14.041 102.64 9.90332 107.847 9.90332ZM107.847 11.6006C103.456 11.6006 99.7137 14.8673 99.7137 19.0791C99.7139 23.2954 103.461 26.5332 107.847 26.5332C112.237 26.5331 115.974 23.2661 115.974 19.0596C115.974 14.8491 112.22 11.6007 107.847 11.6006Z" fill="#3A3845" stroke="#C69B7B" stroke-width="2"/>
<path d="M123.017 10.4033C123.713 12.1698 125.566 15.5371 130.021 17.5264L130.03 17.5303C131.523 18.1855 132.926 19.1499 134.173 20.3926V20.3916C134.436 20.6573 134.789 20.8619 135.204 20.9336C135.634 21.0078 136.062 20.9278 136.427 20.7285C136.58 20.6446 136.715 20.542 136.834 20.4287H137.478V10.4033H137.556V27.7539H137.499V27.2041C137.501 26.5434 137.378 25.8834 137.132 25.2725L137.128 25.2627L136.976 24.9102C136.145 23.0687 134.239 20.1016 130.185 18.252L130.179 18.249L130.171 18.2451C128.696 17.5908 127.302 16.6605 126.043 15.4795H126.042C125.806 15.2561 125.505 15.0818 125.158 15.002L125.001 14.9727L124.84 14.957C124.52 14.9395 124.208 15.0054 123.931 15.1377L123.795 15.209C123.489 15.3861 123.256 15.6333 123.095 15.9023L123.03 16.0195C122.872 16.327 122.799 16.6621 122.8 16.9902H122.798V27.7539H122.722V10.4033H123.017Z" fill="#3A3845" stroke="#C69B7B" stroke-width="3"/>
<path d="M143.541 26.188C143.573 26.1968 143.659 26.2348 143.758 26.3706C143.858 26.5075 143.945 26.7131 143.982 26.9683C144.018 27.2221 143.998 27.483 143.929 27.7104C143.859 27.9401 143.754 28.0921 143.663 28.1743C143.58 28.2507 143.527 28.2544 143.514 28.2544H143.51C143.499 28.2544 143.475 28.2522 143.436 28.23C143.394 28.2064 143.334 28.1579 143.269 28.0688C143.204 27.9798 143.142 27.8593 143.097 27.7095C143.052 27.56 143.027 27.3934 143.028 27.2212V27.2192C143.028 26.9561 143.086 26.7142 143.177 26.5269C143.269 26.3379 143.375 26.2449 143.439 26.2085C143.492 26.1784 143.52 26.1822 143.541 26.188Z" fill="#3A3845" stroke="#C69B7B" stroke-width="2"/>
</svg>
